<?xml version="1.0"?>
<!DOCTYPE svg PUBLIC "-//W3C//DTD SVG 1.0//EN"
	"http://www.w3.org/TR/2001/REC-SVG-20010904/DTD/svg10.dtd">
<svg xmlns="http://www.w3.org/2000/svg"
	preserveAspectRatio="xMinYMin meet"
	width="100"  height="100"
	viewBox="0 0
	105 105">
<title>Netscape 2.0 logo</title>
<desc>Netscape's green N-over-planet logo.
Distributed under the Open Software License v. 1.1:
http://opensource.org/licenses/osl-1.1.txt

Please note section 4; Netscape retains trademark status on this image,
and publishes acceptable use guidelines:
http://wp.netscape.com/legal_notices/trademarks.html
http://channels.netscape.com/ns/info/tos.jsp#trademark
</desc>

<defs>
	<linearGradient id="sky" x1="0" y1="0" x2="0" y2="0.5">
		<stop offset="0%" style="stop-color: #010"/>
		<stop offset="100%" style="stop-color: #065"/>
	</linearGradient>
</defs>
<rect id="skybox" x="0" y="0" width="105" height="105" style="fill:url(#sky)"/>
<path id="N-Bulk" style="fill:#fff; stroke:none" d="M19,18 H32 L73,62 V26
	A6,6 0 0,0 67,20 H64 V18 H84 V20 H81 A6,6 0 0,0 76,26
	V77 L32,29 H28 V25 A6,6 0 0,0 22,20 H19Z"/>
<g id="planet">
	<path d="M0,71 A105,55 0 0,1 105,71 V105H0Z" style="stroke:none; fill:#000"/>
	<path d="M0,71 A105,55 0 0,1 105,71" style="stroke:#fff; opacity:.5;
		stroke-width: 2; stroke-linecap: round;"/>
</g>

<path id="N_Stem" style="stroke:none; fill:#fff"
	d="M32,25V67 A6,6 0 0,0 37,72 H41V74 H19V72	H22 A6,6 0 0,0 28,67 V25Z"/>
</svg>